<?xml version="1.0" encoding="UTF-8"?>
<svg width="595px" height="398px" viewBox="0 0 595 398" version="1.1" xmlns="http://www.w3.org/2000/svg" xmlns:xlink="http://www.w3.org/1999/xlink">
    <!-- Generator: Sketch 55 (78076) - https://sketchapp.com -->
    <title>cl-mark</title>
    <desc>Created with Sketch.</desc>
    <g id="Symbols" stroke="none" stroke-width="1" fill="none" fill-rule="evenodd">
        <g id="cl-mark">
            <g>
                <path d="M581.892562,6.27233345 C567.578984,-4.27483077 547.355178,-1.20578723 536.810795,13.1130217 L291.290089,346.596066 C286.181731,353.536544 284.079367,362.04922 285.371721,370.570042 C286.662039,379.090863 291.192399,386.597495 298.126334,391.709174 C303.708894,395.822955 310.315161,398 317.226708,398 C327.443424,398 337.155409,393.089938 343.210136,384.866449 L588.728807,51.3834041 C599.27319,37.0584855 596.206141,16.8215342 581.892562,6.27233345" id="Fill-2" fill="#4DAB76"></path>
                <path d="M539.860168,255.272119 C525.509609,244.726306 505.233552,247.79292 494.659885,262.111931 L432.285044,346.606723 C421.717499,360.923698 424.790432,381.158057 439.138951,391.712016 C444.737975,395.823233 451.35927,398 458.288674,398 C468.531787,398 478.270905,393.092603 484.339235,384.870167 L546.714075,300.377412 C557.283661,286.060437 554.208687,265.826078 539.860168,255.272119" id="Fill-4" fill="#4DAB76"></path>
                <path d="M296.892562,6.27233345 C282.578984,-4.27483077 262.355178,-1.20578723 251.810795,13.1130217 L6.29008898,346.596066 C1.18173108,353.536544 -0.920632951,362.04922 0.371720542,370.570042 C1.66203883,379.090863 6.19239927,386.597495 13.1263337,391.709174 C18.7088937,395.822955 25.3151606,398 32.2267077,398 C42.4434236,398 52.1554092,393.089938 58.2101362,384.866449 L303.728807,51.3834041 C314.27319,37.0584855 311.206141,16.8215342 296.892562,6.27233345" id="Fill-18" fill="#5830B7"></path>
                <path d="M255.858459,255.272119 C241.50764,244.726306 221.231216,247.79292 210.657358,262.111931 L148.287509,346.606723 C137.715692,360.92777 140.790721,381.16213 155.141541,391.712016 C160.740666,395.823233 167.36208,398 174.29161,398 C184.534908,398 194.274203,393.092603 200.340602,384.870167 L262.712491,300.377412 C273.284308,286.056364 270.209279,265.822005 255.858459,255.272119" id="Fill-20" fill="#5830B7"></path>
                <path d="M431.858459,6.27099073 C417.5056,-4.274906 397.229175,-1.204195 386.659398,13.1108569 L324.287509,97.6042801 C313.715692,111.927477 316.790721,132.161997 331.141541,142.70993 C336.740666,146.825252 343.36208,149 350.29161,149 C360.532867,149 370.272162,144.090528 376.342642,135.870063 L438.712491,51.3766401 C449.284308,37.0534431 446.209279,16.8189237 431.858459,6.27099073" id="Fill-22" fill="#5830B7"></path>
            </g>
        </g>
    </g>
</svg>